<svg width="25" height="24" viewBox="0 0 25 24" fill="none" xmlns="http://www.w3.org/2000/svg">
<path fill-rule="evenodd" clip-rule="evenodd" d="M12.5 3C7.52944 3 3.5 7.02944 3.5 12C3.5 16.9706 7.52944 21 12.5 21C17.4706 21 21.5 16.9706 21.5 12C21.5 7.02944 17.4706 3 12.5 3ZM1.5 12C1.5 5.92487 6.42487 1 12.5 1C18.5751 1 23.5 5.92487 23.5 12C23.5 18.0751 18.5751 23 12.5 23C6.42487 23 1.5 18.0751 1.5 12Z" fill="#424242"/>
<path fill-rule="evenodd" clip-rule="evenodd" d="M11.5 14V5H13.5V14H11.5Z" fill="#424242"/>
<path fill-rule="evenodd" clip-rule="evenodd" d="M11.5 18L11.5 16L13.5 16L13.5 18L11.5 18Z" fill="#424242"/>
</svg>
