<svg width="24" height="24" viewBox="0 0 24 24" fill="none" xmlns="http://www.w3.org/2000/svg">
<path fill-rule="evenodd" clip-rule="evenodd" d="M16.9989 3.00171L13.9981 3.00203C13.9981 4.1066 13.1027 5.00203 11.9981 5.00203C10.8936 5.00203 9.99822 4.10636 9.99815 3.00186C9.99815 3.00181 9.99815 3.00191 9.99815 3.00186L6.99982 3.00182L2 5.99976L4 11.0018H6V20.9999H18V11.0001H20L22.0001 6.00007L17.0055 3.0032M16.4492 5.00177L15.4631 5.00188C14.7715 6.19757 13.4788 7.00203 11.9981 7.00203C10.5174 7.00203 9.22482 6.19737 8.53327 5.00176L7.55351 5.0018L4.48951 6.839L5.35427 9.00176H8V18.9999H16V9.00006H18.6459L19.5105 6.83868L16.4492 5.00177Z" fill="#219653"/>
</svg>
