<svg width="24" height="24" viewBox="0 0 24 24" fill="none" xmlns="http://www.w3.org/2000/svg">
<path fill-rule="evenodd" clip-rule="evenodd" d="M3 7H21V13H3V7ZM5 9V11H19V9H5Z" fill="#6FCF97"/>
<path fill-rule="evenodd" clip-rule="evenodd" d="M4 11H20V22H4V11ZM6 13V20H18V13H6Z" fill="#6FCF97"/>
<path fill-rule="evenodd" clip-rule="evenodd" d="M11 21V8H13V21H11Z" fill="#6FCF97"/>
<path fill-rule="evenodd" clip-rule="evenodd" d="M9.5 9C7.567 9 6 7.433 6 5.5C6 3.567 7.567 2 9.5 2C11.433 2 13 3.567 13 5.5L13 9L9.5 9ZM8 5.5C8 6.32843 8.67157 7 9.5 7L11 7L11 5.5C11 4.67157 10.3284 4 9.5 4C8.67157 4 8 4.67157 8 5.5Z" fill="#6FCF97"/>
<path fill-rule="evenodd" clip-rule="evenodd" d="M11 5.5C11 3.567 12.567 2 14.5 2C16.433 2 18 3.567 18 5.5C18 7.433 16.433 9 14.5 9H11L11 5.5ZM14.5 4C13.6716 4 13 4.67157 13 5.5V7L14.5 7C15.3284 7 16 6.32843 16 5.5C16 4.67157 15.3284 4 14.5 4Z" fill="#6FCF97"/>
</svg>
