<svg width="24" height="24" viewBox="0 0 24 24" fill="none" xmlns="http://www.w3.org/2000/svg">
<g clip-path="url(#clip0_1622_3573)">
<path fill-rule="evenodd" clip-rule="evenodd" d="M13.3824 13.2381L14.4984 13.5378C16.0071 13.9431 17.6762 13.552 18.8539 12.3744C20.6112 10.617 20.6112 7.76777 18.8539 6.01041C17.0965 4.25305 14.2473 4.25305 12.4899 6.01041C11.4192 7.08115 10.9991 8.55627 11.2357 9.95086L11.4086 10.9693L9.0099 13.3679L9.0099 15.9537L7.59569 15.9537V17.3679L5.0099 17.3679L4.49037 17.8875L4.45108 20.0481L6.61169 20.0088L13.3824 13.2381ZM7.45512 21.9938L2.41371 22.0854L2.50537 17.044L4.18148 15.3679H5.59569L5.59569 13.9537H7.0099V12.5395L9.26391 10.2855C8.92349 8.27948 9.52741 6.14446 11.0757 4.59619C13.6141 2.05779 17.7297 2.05779 20.2681 4.59619C22.8065 7.1346 22.8065 11.2502 20.2681 13.7886C18.5644 15.4922 16.1504 16.0525 13.9795 15.4693L7.45512 21.9938Z" fill="#2D9CDB"/>
<path fill-rule="evenodd" clip-rule="evenodd" d="M16.9092 9.00372L15.495 7.58951L16.9092 6.17529L18.3234 7.58951L16.9092 9.00372Z" fill="#2D9CDB"/>
</g>
<defs>
<clipPath id="clip0_1622_3573">
<rect width="24" height="24" fill="white"/>
</clipPath>
</defs>
</svg>
