<svg width="24" height="24" viewBox="0 0 24 24" fill="none" xmlns="http://www.w3.org/2000/svg">
<path fill-rule="evenodd" clip-rule="evenodd" d="M17.5031 14.5991C16.2199 14.5991 15.5028 15.4337 15.5028 16.0991C15.5028 16.7646 16.2199 17.5991 17.5031 17.5991C18.7864 17.5991 19.5034 16.7646 19.5034 16.0991C19.5034 15.4337 18.7864 14.5991 17.5031 14.5991ZM13.5024 16.0991C13.5024 14.0032 15.4721 12.5991 17.5031 12.5991C19.5341 12.5991 21.5038 14.0032 21.5038 16.0991C21.5038 18.1951 19.5341 19.5991 17.5031 19.5991C15.4721 19.5991 13.5024 18.1951 13.5024 16.0991Z" fill="#2F80ED"/>
<path fill-rule="evenodd" clip-rule="evenodd" d="M6.50115 15.5991C5.21791 15.5991 4.50082 16.4337 4.50082 17.0991C4.50082 17.7646 5.21791 18.5991 6.50115 18.5991C7.7844 18.5991 8.50149 17.7646 8.50149 17.0991C8.50149 16.4337 7.7844 15.5991 6.50115 15.5991ZM2.50049 17.0991C2.50049 15.0032 4.47014 13.5991 6.50115 13.5991C8.53217 13.5991 10.5018 15.0032 10.5018 17.0991C10.5018 19.1951 8.53217 20.5991 6.50115 20.5991C4.47014 20.5991 2.50049 19.1951 2.50049 17.0991Z" fill="#2F80ED"/>
<path fill-rule="evenodd" clip-rule="evenodd" d="M21.5036 3V16.099H19.5033V5.19801L10.5018 6.04892V17.099H8.50146V4.22909L21.5036 3Z" fill="#2F80ED"/>
<path fill-rule="evenodd" clip-rule="evenodd" d="M20.0941 9.09481L9.09223 10.0948L8.91113 8.10303L19.913 7.10303L20.0941 9.09481Z" fill="#2F80ED"/>
</svg>
