<svg width="24" height="24" viewBox="0 0 24 24" fill="none" xmlns="http://www.w3.org/2000/svg">
<path fill-rule="evenodd" clip-rule="evenodd" d="M17.9704 6.24264L15.1419 3.41421L16.5562 2L19.3846 4.82843L17.9704 6.24264Z" fill="#F2994A"/>
<path fill-rule="evenodd" clip-rule="evenodd" d="M16.2028 8.01046L13.3744 5.18204L14.7886 3.76782L17.617 6.59625L16.2028 8.01046Z" fill="#F2994A"/>
<path fill-rule="evenodd" clip-rule="evenodd" d="M14.4347 9.77829L11.6063 6.94986L13.0205 5.53564L15.8489 8.36407L14.4347 9.77829Z" fill="#F2994A"/>
<path fill-rule="evenodd" clip-rule="evenodd" d="M13.7276 9.07095L18.6774 4.1212L22.2129 7.65674L16.9096 12.96L14.0086 14.4468L5.94943 22.506L2.4139 18.9704L10.8267 10.5577L13.7276 9.07095ZM12.0186 12.1942L14.9195 10.7074L18.6774 6.94963L19.3845 7.65674L15.7177 11.3235L12.8167 12.8103L5.94943 19.6776L5.24233 18.9704L12.0186 12.1942Z" fill="#F2994A"/>
</svg>
