<svg width="24" height="24" viewBox="0 0 24 24" fill="none" xmlns="http://www.w3.org/2000/svg">
<path fill-rule="evenodd" clip-rule="evenodd" d="M10 7H7C4.23858 7 2 9.23858 2 12C2 14.7614 4.23858 17 7 17H10V15H7C5.34315 15 4 13.6569 4 12C4 10.3431 5.34315 9 7 9H10V7ZM14 15H17C18.6569 15 20 13.6569 20 12C20 10.3431 18.6569 9 17 9H14V7H17C19.7614 7 22 9.23858 22 12C22 14.7614 19.7614 17 17 17H14V15Z" fill="#424242"/>
<path fill-rule="evenodd" clip-rule="evenodd" d="M16 13H8V11H16V13Z" fill="#424242"/>
</svg>
