<svg width="24" height="24" viewBox="0 0 24 24" fill="none" xmlns="http://www.w3.org/2000/svg">
<path fill-rule="evenodd" clip-rule="evenodd" d="M19 8C20.6569 8 22 6.65685 22 5C22 3.34315 20.6569 2 19 2C17.3431 2 16 3.34315 16 5C16 5.15664 16.012 5.31048 16.0351 5.46065L7.35126 10.1366C6.80171 9.44411 5.95272 9 5 9C3.34315 9 2 10.3431 2 12C2 13.6569 3.34315 15 5 15C5.95271 15 6.8017 14.5559 7.35125 13.8634L16.0351 18.5394C16.012 18.6895 16 18.8434 16 19C16 20.6569 17.3431 22 19 22C20.6569 22 22 20.6569 22 19C22 17.3431 20.6569 16 19 16C18.2237 16 17.5164 16.2948 16.9837 16.7786L8.10915 12L16.9837 7.22141C17.5164 7.70518 18.2238 8 19 8Z" fill="#424242"/>
</svg>
