<svg width="25" height="24" viewBox="0 0 25 24" fill="none" xmlns="http://www.w3.org/2000/svg">
<path fill-rule="evenodd" clip-rule="evenodd" d="M1.5 5H23.5V18H1.5V5ZM3.5 7V16H21.5V7H3.5Z" fill="#424242"/>
<path fill-rule="evenodd" clip-rule="evenodd" d="M12.5 10C12.1444 10 11.5 10.4518 11.5 11.5C11.5 12.5482 12.1444 13 12.5 13C12.8556 13 13.5 12.5482 13.5 11.5C13.5 10.4518 12.8556 10 12.5 10ZM9.5 11.5C9.5 9.78677 10.6464 8 12.5 8C14.3536 8 15.5 9.78677 15.5 11.5C15.5 13.2132 14.3536 15 12.5 15C10.6464 15 9.5 13.2132 9.5 11.5Z" fill="#424242"/>
<path fill-rule="evenodd" clip-rule="evenodd" d="M7.5 10H4.5V8H7.5V10Z" fill="#424242"/>
<path fill-rule="evenodd" clip-rule="evenodd" d="M20.5 15H17.5V13H20.5V15Z" fill="#424242"/>
</svg>
