<svg width="25" height="24" viewBox="0 0 25 24" fill="none" xmlns="http://www.w3.org/2000/svg">
<path fill-rule="evenodd" clip-rule="evenodd" d="M15.5 5H14.5V3H12.5V5H10.5V3H8.5V5H6.5V11V13V19H8.5V21H10.5V19H12.5V21H14.5V19H15.5C17.1569 19 18.5 17.6569 18.5 16V14C18.5 13.2316 18.2111 12.5308 17.7361 12C18.2111 11.4692 18.5 10.7684 18.5 10V8C18.5 6.34315 17.1569 5 15.5 5ZM8.5 13V17H15.5C16.0523 17 16.5 16.5523 16.5 16V14C16.5 13.4477 16.0523 13 15.5 13H8.5ZM8.5 11H15.5C16.0523 11 16.5 10.5523 16.5 10V8C16.5 7.44772 16.0523 7 15.5 7H8.5V11Z" fill="#424242"/>
</svg>
