<svg width="24" height="24" viewBox="0 0 24 24" fill="none" xmlns="http://www.w3.org/2000/svg">
<path fill-rule="evenodd" clip-rule="evenodd" d="M17.0527 4H22.0527V22H17.0527V4ZM19.0527 6V20H20.0527V6H19.0527Z" fill="#424242"/>
<path fill-rule="evenodd" clip-rule="evenodd" d="M10.0527 12H15.0527V22H10.0527V12ZM12.0527 14V20H13.0527V14H12.0527Z" fill="#424242"/>
<path fill-rule="evenodd" clip-rule="evenodd" d="M3.05273 16H8.05273V22H3.05273V16ZM5.05273 18V20H6.05273V18H5.05273Z" fill="#424242"/>
<path fill-rule="evenodd" clip-rule="evenodd" d="M15.0527 10V3H8.05273V5L11.4953 5L8.04565 9.39042L6.07928 6.93244L2.29346 11.3492L3.81197 12.6508L6.02615 10.0676L8.05977 12.6096L13.0527 6.25495V10H15.0527Z" fill="#424242"/>
</svg>
