<svg width="24" height="24" viewBox="0 0 24 24" fill="none" xmlns="http://www.w3.org/2000/svg">
<path d="M5.5 8H7.5V10H5.5V8Z" fill="#424242"/>
<path d="M9.5 8H11.5V10H9.5V8Z" fill="#424242"/>
<path d="M13.5 8H15.5V10H13.5V8Z" fill="#424242"/>
<path fill-rule="evenodd" clip-rule="evenodd" d="M19 3H2V13.3333V14.2667V20.6613L6.95374 15.0003H11V14.99L19 14.9671V3ZM7.49714 13.0003L7.49714 13L17 12.9728V5H4V13.3333V14.2667V15.3387L6.04626 13.0003H7.49714Z" fill="#424242"/>
<path fill-rule="evenodd" clip-rule="evenodd" d="M20 16V6H22V18H12.3333L7 22V16H9V18L11.6667 16H20Z" fill="#424242"/>
</svg>
