<svg width="24" height="24" viewBox="0 0 24 24" fill="none" xmlns="http://www.w3.org/2000/svg">
<path fill-rule="evenodd" clip-rule="evenodd" d="M13.5195 2L16.5566 5.79629H14V7.79629H17V8.89814H14V10.8981H17V13H19V10.8981H22V8.89814H19V7.79629H22V5.79629H19.4437L22.4808 2H19.9195L18.0002 4.39922L16.0808 2H13.5195Z" fill="#424242"/>
<path fill-rule="evenodd" clip-rule="evenodd" d="M5.00008 11V10H7.00008V11H10.0001V13H7.00008V15H7.33342C8.99027 15 10.3334 16.3431 10.3334 18C10.3334 19.6569 8.99027 21 7.33342 21H7.00008V22H5.00008V21H2.00008V19H5.00008V17H4.66675C3.00989 17 1.66675 15.6569 1.66675 14C1.66675 12.3431 3.0099 11 4.66675 11H5.00008ZM5.00008 13H4.66675C4.11446 13 3.66675 13.4477 3.66675 14C3.66675 14.5523 4.11446 15 4.66675 15H5.00008V13ZM7.00008 17V19H7.33342C7.8857 19 8.33342 18.5523 8.33342 18C8.33342 17.4477 7.8857 17 7.33342 17H7.00008Z" fill="#424242"/>
<path fill-rule="evenodd" clip-rule="evenodd" d="M22 22V15H15V17L18.4134 17L15.1134 20H13V22H15.8866L20 18.2606V22H22Z" fill="#424242"/>
<path fill-rule="evenodd" clip-rule="evenodd" d="M2 2L2 9L9 9L9 7L5.58659 7L8.88661 3.99999L11 3.99999L11 1.99999L8.11339 1.99999L4 5.73944L4 2L2 2Z" fill="#424242"/>
</svg>
