<svg width="24" height="24" viewBox="0 0 24 24" fill="none" xmlns="http://www.w3.org/2000/svg">
<path fill-rule="evenodd" clip-rule="evenodd" d="M17.5 1.82751L22 4.58223V7.00001H13V4.58223L17.5 1.82751ZM16.1482 5.00001H18.8518L17.5 4.1725L16.1482 5.00001Z" fill="#424242"/>
<path fill-rule="evenodd" clip-rule="evenodd" d="M13 10.5V7.5H15V10.5H13Z" fill="#424242"/>
<path fill-rule="evenodd" clip-rule="evenodd" d="M16.5 10.5V7.5H18.5V10.5H16.5Z" fill="#424242"/>
<path fill-rule="evenodd" clip-rule="evenodd" d="M20 10.5V7.5H22V10.5H20Z" fill="#424242"/>
<path fill-rule="evenodd" clip-rule="evenodd" d="M22 13H13V11H22V13Z" fill="#424242"/>
<path fill-rule="evenodd" clip-rule="evenodd" d="M6.5 10.8275L11 13.5822V16H2V13.5822L6.5 10.8275ZM5.14822 14H7.85178L6.5 13.1725L5.14822 14Z" fill="#424242"/>
<path fill-rule="evenodd" clip-rule="evenodd" d="M2 19.5V16.5H4V19.5H2Z" fill="#424242"/>
<path fill-rule="evenodd" clip-rule="evenodd" d="M5.5 19.5V16.5H7.5V19.5H5.5Z" fill="#424242"/>
<path fill-rule="evenodd" clip-rule="evenodd" d="M9 19.5V16.5H11V19.5H9Z" fill="#424242"/>
<path d="M2 21H11" stroke="#424242" stroke-width="2" stroke-miterlimit="10"/>
<path fill-rule="evenodd" clip-rule="evenodd" d="M22 22V15H15V17L18.4133 17L15.1134 19.9999H13V21.9999H15.8866L20 18.2605V22H22Z" fill="#424242"/>
<path fill-rule="evenodd" clip-rule="evenodd" d="M2 3L2 10L9 10L9 8L5.58666 8L8.88661 5.00005L11 5.00005L11 3.00005L8.11339 3.00005L4 6.7395L4 3L2 3Z" fill="#424242"/>
</svg>
