<svg width="32" height="11" viewBox="0 0 32 11" fill="none" xmlns="http://www.w3.org/2000/svg">
<path d="M9.82617 0.289999L6.00117 11H4.65117L0.826172 0.289999H2.23617L4.65117 7.16C4.76117 7.45 4.85617 7.73 4.93617 8C5.01617 8.27 5.08617 8.53 5.14617 8.78C5.21617 9.02 5.27617 9.26 5.32617 9.5C5.37617 9.26 5.43117 9.015 5.49117 8.765C5.56117 8.515 5.63617 8.255 5.71617 7.985C5.80617 7.715 5.90117 7.43 6.00117 7.13L8.40117 0.289999H9.82617ZM19.7653 11H18.1903L12.4603 2.105H12.4003C12.4103 2.285 12.4203 2.485 12.4303 2.705C12.4503 2.925 12.4653 3.165 12.4753 3.425C12.4853 3.675 12.4953 3.935 12.5053 4.205C12.5153 4.475 12.5203 4.745 12.5203 5.015V11H11.2753V0.289999H12.8353L18.5503 9.155H18.6103C18.6003 9.035 18.5903 8.87 18.5803 8.66C18.5703 8.44 18.5603 8.2 18.5503 7.94C18.5403 7.67 18.5303 7.395 18.5203 7.115C18.5103 6.835 18.5053 6.575 18.5053 6.335V0.289999H19.7653V11ZM31.2518 5.54C31.2518 6.74 31.0268 7.745 30.5768 8.555C30.1368 9.365 29.5018 9.975 28.6718 10.385C27.8418 10.795 26.8368 11 25.6568 11H22.6718V0.289999H25.9718C27.0518 0.289999 27.9868 0.489999 28.7768 0.89C29.5668 1.29 30.1768 1.88 30.6068 2.66C31.0368 3.43 31.2518 4.39 31.2518 5.54ZM29.8268 5.585C29.8268 4.635 29.6668 3.855 29.3468 3.245C29.0368 2.635 28.5768 2.185 27.9668 1.895C27.3668 1.595 26.6368 1.445 25.7768 1.445H24.0218V9.845H25.4768C26.9268 9.845 28.0118 9.49 28.7318 8.78C29.4618 8.06 29.8268 6.995 29.8268 5.585Z" fill="#000000"/>
</svg>
