<svg width="25" height="24" viewBox="0 0 25 24" fill="none" xmlns="http://www.w3.org/2000/svg">
<path fill-rule="evenodd" clip-rule="evenodd" d="M18.833 11.333L18.833 21.333L6.16634 21.333L6.16634 11.333L18.833 11.333ZM16.833 13.333L8.16634 13.333L8.16634 19.333L16.833 19.333L16.833 13.333Z" fill="#424242"/>
<path fill-rule="evenodd" clip-rule="evenodd" d="M4.5 10.833H20.5V13.833H4.5V10.833Z" fill="#424242"/>
<path fill-rule="evenodd" clip-rule="evenodd" d="M10.167 20.333L10.167 12.333L12.167 12.333L12.167 20.333L10.167 20.333Z" fill="#424242"/>
<path d="M4.5 8.33297H6.09398L6.36203 7.27221H7.90597L8.17402 8.33297H9.768L8.08467 2.99963H6.18333L4.5 8.33297ZM7.1197 4.27106H7.1483L7.62721 6.16711H6.6408L7.1197 4.27106Z" fill="#424242"/>
<path d="M11.0079 8.33297H12.5232V4.24149H13.8813V2.99963H9.64977V4.24149H11.0079V8.33297Z" fill="#424242"/>
<path d="M14.6923 8.33297H16.0147V5.24311H16.0397L17.1905 8.33297H18.0018L19.1526 5.24311H19.1776V8.33297H20.5V2.99963H18.7488L17.6087 6.1745H17.5837L16.4436 2.99963H14.6923V8.33297Z" fill="#424242"/>
</svg>
