<svg width="24" height="24" viewBox="0 0 24 24" fill="none" xmlns="http://www.w3.org/2000/svg">
<path fill-rule="evenodd" clip-rule="evenodd" d="M6 5C4.89543 5 4 5.89543 4 7C4 8.10457 4.89543 9 6 9C7.10457 9 8 8.10457 8 7C8 5.89543 7.10457 5 6 5ZM2 7C2 4.79086 3.79086 3 6 3C8.20914 3 10 4.79086 10 7C10 9.20914 8.20914 11 6 11C3.79086 11 2 9.20914 2 7Z" fill="#424242"/>
<path fill-rule="evenodd" clip-rule="evenodd" d="M18 15C16.8954 15 16 15.8954 16 17C16 18.1046 16.8954 19 18 19C19.1046 19 20 18.1046 20 17C20 15.8954 19.1046 15 18 15ZM14 17C14 14.7909 15.7909 13 18 13C20.2091 13 22 14.7909 22 17C22 19.2091 20.2091 21 18 21C15.7909 21 14 19.2091 14 17Z" fill="#424242"/>
<path fill-rule="evenodd" clip-rule="evenodd" d="M5.17529 19.9344L17.1753 2.43445L18.8248 3.5655L6.82475 21.0655L5.17529 19.9344Z" fill="#424242"/>
</svg>
