<svg width="25" height="24" viewBox="0 0 25 24" fill="none" xmlns="http://www.w3.org/2000/svg">
<path fill-rule="evenodd" clip-rule="evenodd" d="M11.5 5V3H13.5V5H18.5V7H13.5V11H15.5C17.1569 11 18.5 12.3431 18.5 14V16C18.5 17.6569 17.1569 19 15.5 19H13.5V21H11.5V19H6.5V17H11.5V13H9.5C7.84315 13 6.5 11.6569 6.5 10V8C6.5 6.34315 7.84315 5 9.5 5H11.5ZM11.5 7H9.5C8.94772 7 8.5 7.44772 8.5 8V10C8.5 10.5523 8.94772 11 9.5 11H11.5V7ZM13.5 13V17H15.5C16.0523 17 16.5 16.5523 16.5 16V14C16.5 13.4477 16.0523 13 15.5 13H13.5Z" fill="#424242"/>
</svg>
