<svg width="24" height="24" viewBox="0 0 24 24" fill="none" xmlns="http://www.w3.org/2000/svg">
<path fill-rule="evenodd" clip-rule="evenodd" d="M5.06189 11C5.02104 11.3276 5 11.6613 5 12C5 12.3387 5.02104 12.6724 5.06189 13H3V15H5.58152C6.76829 17.9318 9.64262 20 13 20H18V18H13C10.7792 18 8.84012 16.7934 7.80269 15H10V13H7.08296C7.0284 12.6748 7 12.3407 7 12C7 11.6593 7.0284 11.3252 7.08296 11H10V9H7.80269C8.84012 7.2066 10.7792 6 13 6H18V4H13C9.64262 4 6.76829 6.06817 5.58152 9H3V11H5.06189Z" fill="#424242"/>
</svg>
