<svg width="24" height="24" viewBox="0 0 24 24" fill="none" xmlns="http://www.w3.org/2000/svg">
<path fill-rule="evenodd" clip-rule="evenodd" d="M15.9982 5.04518L15.9982 2L12.941 5H7C4.23858 5 2 7.23858 2 10V13.7857C2 16.3784 3.97334 18.5102 6.5 18.761V21H8.5V18.7857H14V21H16V18.7402C17.5855 18.4853 18.822 17.1866 18.9824 15.5714H20C21.1046 15.5714 22 14.676 22 13.5714V10.2143C22 9.10971 21.1046 8.21429 20 8.21429H18.9824C18.8219 6.59847 17.5846 5.29946 15.9982 5.04518ZM4 10C4 8.34315 5.34315 7 7 7H15.4286C16.2964 7 17 7.70355 17 8.57143C17 9.47875 17.7355 10.2143 18.6429 10.2143H20V13.5714H18.6429C17.7355 13.5714 17 14.307 17 15.2143C17 16.0822 16.2964 16.7857 15.4286 16.7857H7C5.34315 16.7857 4 15.4426 4 13.7857V10Z" fill="#424242"/>
<path d="M14 10H16V12H14V10Z" fill="#424242"/>
</svg>
