<svg width="25" height="24" viewBox="0 0 25 24" fill="none" xmlns="http://www.w3.org/2000/svg">
<path fill-rule="evenodd" clip-rule="evenodd" d="M6.50381 2H18.4962L16.1721 5.73784C19.2859 7.05487 21.5 10.0093 21.5 13.5C21.5 18.2542 17.4088 22 12.5 22C7.59121 22 3.5 18.2542 3.5 13.5C3.5 10.0093 5.71412 7.05487 8.82786 5.73784L6.50381 2ZM10.1024 4L11.9054 6.89987L10.594 7.24378C7.61427 8.02514 5.5 10.564 5.5 13.5C5.5 17.03 8.57223 20 12.5 20C16.4278 20 19.5 17.03 19.5 13.5C19.5 10.564 17.3857 8.02514 14.406 7.24378L13.0946 6.89987L14.8976 4H10.1024Z" fill="#424242"/>
<path fill-rule="evenodd" clip-rule="evenodd" d="M11.5 9.5V9H13.5V9.5H15.5V11.5H13.5V12.5C14.8807 12.5 16 13.6193 16 15C16 16.3807 14.8807 17.5 13.5 17.5V18H11.5V17.5H9.5V15.5H11.5V14.5C10.1193 14.5 9 13.3807 9 12C9 10.6193 10.1193 9.5 11.5 9.5ZM13.5 14.5V15.5C13.7761 15.5 14 15.2761 14 15C14 14.7239 13.7761 14.5 13.5 14.5ZM11.5 12.5V11.5C11.2239 11.5 11 11.7239 11 12C11 12.2761 11.2239 12.5 11.5 12.5Z" fill="#424242"/>
</svg>
