<svg width="360" height="111" viewBox="0 0 360 111" fill="none" xmlns="http://www.w3.org/2000/svg">
<path fill-rule="evenodd" clip-rule="evenodd" d="M360 44.4L348 53.28C336 62.16 312 79.92 288 75.48C264 71.04 240 44.4 216 26.64C192 8.88 168 0 144 0C120 0 96 8.88 72 24.42C48 39.96 24 62.16 12 73.26L0 84.36V111H12C24 111 48 111 72 111C96 111 120 111 144 111C168 111 192 111 216 111C240 111 264 111 288 111C312 111 336 111 348 111H360V44.4Z" fill="#E5E4E3" fill-opacity="0.8"/>
<path fill-rule="evenodd" clip-rule="evenodd" d="M360 0L345.094 4.17052C329.906 8.34104 300.094 16.6821 270 30.7977C239.906 45.2341 210.094 65.7659 180 69.9364C149.906 74.1069 120.094 61.5954 90 57.7457C59.9063 53.5751 30.0938 57.7457 14.9063 59.6705L3.05176e-05 61.5954V111H14.9063C30.0938 111 59.9063 111 90 111C120.094 111 149.906 111 180 111C210.094 111 239.906 111 270 111C300.094 111 329.906 111 345.094 111H360V0Z" fill="#9C7C45" fill-opacity="0.8"/>
</svg>
