<svg xmlns="http://www.w3.org/2000/svg" version="1.1" xmlns:xlink="http://www.w3.org/1999/xlink" xmlns:svgjs="http://svgjs.com/svgjs" width="512" height="512" x="0" y="0" viewBox="0 0 512 512" style="enable-background:new 0 0 512 512" xml:space="preserve" class=""><g><path xmlns="http://www.w3.org/2000/svg" d="m256 96.14 40-55.682c12.171-15.214 36.574-25.812 56-24.318l72 8-40 56c-10.594 15.135-29.573 25.317-48 24z" fill="#35a872" data-original="#35a872" class=""></path><path xmlns="http://www.w3.org/2000/svg" d="m224 120.14-40-55.682c-12.171-15.214-36.574-25.812-56-24.318l-72 8 40 56c10.594 15.135 29.573 25.317 48 24z" fill="#35a872" data-original="#35a872" class=""></path><path xmlns="http://www.w3.org/2000/svg" d="m344 72a8 8 0 0 1 -8 8h-32a56.062 56.062 0 0 0 -56 56v40a8 8 0 0 1 -16 0v-16a56.062 56.062 0 0 0 -56-56h-16a8 8 0 0 1 0-16h16a71.945 71.945 0 0 1 58.32 29.83 72.148 72.148 0 0 1 69.68-53.83h32a8 8 0 0 1 8 8z" fill="#3dc285" data-original="#3dc285" class=""></path><path xmlns="http://www.w3.org/2000/svg" d="m160 264h112v32h-112z" fill="#ffd33a" data-original="#ffd33a"></path><path xmlns="http://www.w3.org/2000/svg" d="m144 232h112v32h-112z" fill="#ffb632" data-original="#ffb632"></path><path xmlns="http://www.w3.org/2000/svg" d="m160 200h112v32h-112z" fill="#ffd33a" data-original="#ffd33a"></path><path xmlns="http://www.w3.org/2000/svg" d="m144 168h112v32h-112z" fill="#ffb632" data-original="#ffb632"></path><path xmlns="http://www.w3.org/2000/svg" d="m144 360h112v32h-112z" fill="#ffb632" data-original="#ffb632"></path><path xmlns="http://www.w3.org/2000/svg" d="m160 328h112v32h-112z" fill="#ffd33a" data-original="#ffd33a"></path><path xmlns="http://www.w3.org/2000/svg" d="m160 392h112v32h-112z" fill="#ffd33a" data-original="#ffd33a"></path><path xmlns="http://www.w3.org/2000/svg" d="m144 296h112v32h-112z" fill="#ffb632" data-original="#ffb632"></path><path xmlns="http://www.w3.org/2000/svg" d="m288 232a64 64 0 1 0 64 64 64.072 64.072 0 0 0 -64-64zm0 112a48 48 0 1 1 48-48 48.051 48.051 0 0 1 -48 48z" fill="#ffb632" data-original="#ffb632"></path><path xmlns="http://www.w3.org/2000/svg" d="m376 360-137.139-7.257a18.105 18.105 0 0 0 -18.47 13.692 18.105 18.105 0 0 0 13.174 21.956l43.973 10.994-61.538 24.615-164.6-42.94a22.73 22.73 0 0 0 -13.9 43.209l186.5 71.731 136-32 56 8h72v-112z" fill="#f0c6a4" data-original="#f0c6a4"></path><path xmlns="http://www.w3.org/2000/svg" d="m416 344h72v144h-72z" fill="#2d85cc" data-original="#2d85cc"></path><circle xmlns="http://www.w3.org/2000/svg" cx="288" cy="296" fill="#ffd33a" r="48" data-original="#ffd33a"></circle><path xmlns="http://www.w3.org/2000/svg" d="m304 304a15.974 15.974 0 0 1 -8 13.84v2.16a8 8 0 0 1 -16 0 8 8 0 0 1 0-16h8a15.99 15.99 0 0 1 -8-29.84v-2.16a8 8 0 0 1 16 0 8 8 0 0 1 0 16h-8a16.021 16.021 0 0 1 16 16z" fill="#ffb632" data-original="#ffb632"></path><path xmlns="http://www.w3.org/2000/svg" d="m312.006 416a8.007 8.007 0 0 1 -1.946-.241l-34.46-8.613a8 8 0 1 1 3.881-15.522l34.461 8.615a8 8 0 0 1 -1.936 15.761z" fill="#e0b999" data-original="#e0b999"></path></g></svg>