<svg width="24" height="24" viewBox="0 0 24 24" fill="none" xmlns="http://www.w3.org/2000/svg">
<path fill-rule="evenodd" clip-rule="evenodd" d="M11.4511 12.8272L18.4834 19.8595L19.8976 18.4453L12.8653 11.413L13.2295 10.256C13.7187 8.70171 13.3451 6.94295 12.1194 5.71733C11.1775 4.77542 9.92067 4.33804 8.68685 4.40606L11.3583 7.07749L7.11564 11.3201L4.44421 8.6487C4.37619 9.88251 4.81357 11.1394 5.75548 12.0813C6.98111 13.3069 8.73987 13.6806 10.2941 13.1913L11.4511 12.8272ZM2.7377 6.94219C2.03352 9.17942 2.56804 11.7223 4.34127 13.4955C6.1145 15.2687 8.65736 15.8033 10.8946 15.0991L18.4834 22.6879L22.726 18.4453L15.1372 10.8564C15.8414 8.61921 15.3069 6.07635 13.5337 4.30312C11.7604 2.52989 9.21757 1.99537 6.98034 2.69955C6.31832 2.90792 5.68307 3.22476 5.10243 3.65007L8.52985 7.07749L7.11564 8.4917L3.68822 5.06428C3.26292 5.64491 2.94608 6.28017 2.7377 6.94219Z" fill="#424242"/>
</svg>
