<svg width="23" height="22" viewBox="0 0 23 22" fill="none" xmlns="http://www.w3.org/2000/svg">
<path fill-rule="evenodd" clip-rule="evenodd" d="M2.5 11C2.5 6.03 6.53 2 11.5 2C13.24 2 14.86 2.49 16.24 3.35L17.65 1.88C15.89 0.69 13.78 0 11.5 0C5.42 0 0.5 4.92 0.5 11C0.5 17.08 5.42 22 11.5 22C17.58 22 22.5 17.08 22.5 11C22.5 9.39 22.16 7.87 21.54 6.49L20.02 8.08C20.33 9 20.5 9.98 20.5 11C20.5 15.97 16.47 20 11.5 20C6.53 20 2.5 15.97 2.5 11Z" fill="#424242"/>
<path fill-rule="evenodd" clip-rule="evenodd" d="M19.1993 3.15039L10.6693 12.0504L7.2193 8.44039L5.7793 9.81039L10.6693 14.9404L20.4993 4.69039C20.1093 4.14039 19.6793 3.62039 19.1993 3.15039Z" fill="#424242"/>
</svg>
