<svg width="25" height="24" viewBox="0 0 25 24" fill="none" xmlns="http://www.w3.org/2000/svg">
<path fill-rule="evenodd" clip-rule="evenodd" d="M20.5 4H16.3572V2H20.5C21.6046 2 22.5 2.89543 22.5 4V8.14286H20.5L20.5 4Z" fill="#424242"/>
<path fill-rule="evenodd" clip-rule="evenodd" d="M4.49997 20L8.64282 20L8.64282 22L4.49997 22C3.3954 22 2.49997 21.1046 2.49997 20L2.49997 15.8571L4.49997 15.8571L4.49997 20Z" fill="#424242"/>
<path fill-rule="evenodd" clip-rule="evenodd" d="M4.5 3.99997L4.5 8.14282L2.5 8.14282L2.5 3.99997C2.5 2.8954 3.39543 1.99997 4.5 1.99997L8.64286 1.99996L8.64286 3.99996L4.5 3.99997Z" fill="#424242"/>
<path fill-rule="evenodd" clip-rule="evenodd" d="M20.5 20L20.5 15.8572L22.5 15.8572L22.5 20C22.5 21.1046 21.6046 22 20.5 22L16.3571 22L16.3571 20L20.5 20Z" fill="#424242"/>
<path fill-rule="evenodd" clip-rule="evenodd" d="M6.5 12V8H8.5V12H6.5Z" fill="#424242"/>
<path fill-rule="evenodd" clip-rule="evenodd" d="M16.5 12V8H18.5V12H16.5Z" fill="#424242"/>
<path fill-rule="evenodd" clip-rule="evenodd" d="M12 11.5V7H14V11.5C14 12.6046 13.1046 13.5 12 13.5H10.5V11.5H12Z" fill="#424242"/>
<path fill-rule="evenodd" clip-rule="evenodd" d="M8.92224 17.3291L8.05273 16.8943L8.94716 15.1055L9.81667 15.5402C11.5058 16.3848 13.4941 16.3848 15.1832 15.5402L16.0527 15.1055L16.9472 16.8943L16.0777 17.3291C13.8254 18.4552 11.1745 18.4552 8.92224 17.3291Z" fill="#424242"/>
</svg>
