<svg width="25" height="24" viewBox="0 0 25 24" fill="none" xmlns="http://www.w3.org/2000/svg">
<path fill-rule="evenodd" clip-rule="evenodd" d="M2.5 9.45946C2.5 6.46623 5.00172 4 8 4C9.84273 4 11.4979 4.93157 12.5 6.3445C13.5021 4.93157 15.1573 4 17 4C19.9983 4 22.5 6.46623 22.5 9.45946C22.5 11.5489 21.1092 12.9573 20.0766 13.9806L20.0724 13.9848L12.5 21.3996L4.90997 13.9675L4.89317 13.9493C4.84302 13.8951 4.79039 13.8386 4.7358 13.7801C4.3288 13.3436 3.81254 12.7899 3.39433 12.1632C2.90952 11.4366 2.5 10.5347 2.5 9.45946Z" fill="#424242"/>
</svg>
