<svg width="25" height="24" viewBox="0 0 25 24" fill="none" xmlns="http://www.w3.org/2000/svg">
<path fill-rule="evenodd" clip-rule="evenodd" d="M12.5 3C7.52944 3 3.5 7.02944 3.5 12C3.5 16.9706 7.52944 21 12.5 21C17.4706 21 21.5 16.9706 21.5 12C21.5 7.02944 17.4706 3 12.5 3ZM1.5 12C1.5 5.92487 6.42487 1 12.5 1C18.5751 1 23.5 5.92487 23.5 12C23.5 18.0751 18.5751 23 12.5 23C6.42487 23 1.5 18.0751 1.5 12Z" fill="#424242"/>
<path d="M11 10.5H14V13.5H11V10.5Z" fill="#424242"/>
<path d="M5.5 10.5H8.5V13.5H5.5V10.5Z" fill="#424242"/>
<path d="M16.5 10.5H19.5V13.5H16.5V10.5Z" fill="#424242"/>
</svg>
