<svg width="25" height="24" viewBox="0 0 25 24" fill="none" xmlns="http://www.w3.org/2000/svg">
<path fill-rule="evenodd" clip-rule="evenodd" d="M5.5 9C5.5 6.23858 7.73858 4 10.5 4C13.2614 4 15.5 6.23858 15.5 9C15.5 11.7614 13.2614 14 10.5 14C7.73858 14 5.5 11.7614 5.5 9ZM10.5 2C6.63401 2 3.5 5.13401 3.5 9C3.5 12.866 6.63401 16 10.5 16C11.9329 16 13.2652 15.5695 14.3747 14.8307L20.7686 21.6823L22.2308 20.3177L15.8651 13.4964C16.8855 12.2802 17.5 10.7118 17.5 9C17.5 5.13401 14.366 2 10.5 2Z" fill="#424242"/>
</svg>
