<svg width="24" height="24" viewBox="0 0 24 24" fill="none" xmlns="http://www.w3.org/2000/svg">
<path fill-rule="evenodd" clip-rule="evenodd" d="M11.0001 19.9556C8.42386 19.7239 6.45804 18.6083 5.02155 17.2212L2.70743 19.5354L1.29321 18.1212L3.71212 15.7022C2.83711 14.4836 2.29209 13.2263 2.03375 12.2575L3.96622 11.7422C4.5722 14.0146 7.03895 17.9999 12 17.9999C14.6879 17.9999 16.5624 16.8916 17.8405 15.5579C19.1426 14.1992 19.8165 12.6109 20.0298 11.7573L21.9701 12.2424C21.7475 13.133 21.1993 14.4853 20.2283 15.8139L22.5357 18.1212L21.1215 19.5355L18.9046 17.3186C17.4969 18.645 15.5578 19.7295 13.0001 19.9562V22.9999H11.0001V19.9556Z" fill="#424242"/>
</svg>
