<svg width="20" height="16" viewBox="0 0 20 16" fill="none" xmlns="http://www.w3.org/2000/svg">
<path fill-rule="evenodd" clip-rule="evenodd" d="M2.04812 7.99931C3.21587 4.47284 6.36197 2 10 2C13.6385 2 16.785 4.47348 17.9524 8.00068C16.7846 11.5272 13.6385 14 10.0005 14C6.36195 14 3.2155 11.5265 2.04812 7.99931ZM0.0512741 8.31632C-0.0115223 8.12852 -0.0193098 7.92024 0.0412037 7.71597C1.35555 3.27912 5.28877 0 10 0C14.6998 0 18.6254 3.26323 19.9492 7.68368C20.012 7.87148 20.0198 8.07976 19.9593 8.28403C18.6449 12.7209 14.7117 16 10.0005 16C5.30066 16 1.37511 12.7368 0.0512741 8.31632Z" fill="#424242"/>
<path fill-rule="evenodd" clip-rule="evenodd" d="M10 6C8.89543 6 8 6.89543 8 8C8 9.10457 8.89543 10 10 10C11.1046 10 12 9.10457 12 8C12 6.89543 11.1046 6 10 6ZM6 8C6 5.79086 7.79086 4 10 4C12.2091 4 14 5.79086 14 8C14 10.2091 12.2091 12 10 12C7.79086 12 6 10.2091 6 8Z" fill="#424242"/>
</svg>
