<svg width="24" height="24" viewBox="0 0 24 24" fill="none" xmlns="http://www.w3.org/2000/svg">
<path fill-rule="evenodd" clip-rule="evenodd" d="M10.0304 2H14.0649L14.5228 4.3694C14.934 4.50542 15.3294 4.67355 15.7066 4.86981L17.6817 3.53487L20.5335 6.38674L19.1787 8.38915C19.3696 8.76996 19.5314 9.16731 19.6616 9.57862L22 10.0304V14.0632L19.631 14.526C19.495 14.9374 19.3269 15.333 19.1306 15.7104L20.4658 17.681L17.6133 20.5335L15.6108 19.1787C15.23 19.3696 14.8327 19.5314 14.4214 19.6616L13.9696 22H9.93511L9.47716 19.6306C9.06625 19.4947 8.67109 19.3267 8.29418 19.1306L6.32356 20.4658L3.47133 17.6136L4.82149 15.6157C4.63054 15.2348 4.46865 14.8374 4.33839 14.4259L2 13.9741V9.93965L4.3694 9.4817C4.50542 9.07052 4.67355 8.67512 4.86981 8.29799L3.53424 6.32193L6.39189 3.47196L8.3888 4.82149C8.76971 4.63054 9.16718 4.46865 9.57862 4.33839L10.0304 2ZM11.681 4L11.3007 5.96815L10.6656 6.11353C10.0175 6.26189 9.40852 6.51168 8.85355 6.84779L8.30598 7.17942L6.63738 6.05176L6.11662 6.57111L7.24052 8.23397L6.89356 8.78596C6.54927 9.33369 6.28881 9.93739 6.13363 10.5814L5.98291 11.2069L4 11.5901V12.3236L5.96815 12.7038L6.11353 13.3389C6.26189 13.987 6.51168 14.596 6.84779 15.151L7.17942 15.6986L6.05239 17.3662L6.56948 17.8833L8.22873 16.759L8.78141 17.1064C9.32915 17.4507 9.93285 17.7112 10.5768 17.8664L11.2023 18.0171L11.5856 20H12.319L12.6993 18.0319L13.3344 17.8865C13.9825 17.7381 14.5915 17.4883 15.1464 17.1522L15.6943 16.8204L17.3666 17.9518L17.8833 17.4351L16.759 15.7758L17.1064 15.2231C17.4507 14.6754 17.7112 14.0717 17.8664 13.4277L18.0168 12.8036L20 12.4161V11.681L18.0319 11.3007L17.8865 10.6656C17.7381 10.0175 17.4883 9.40853 17.1522 8.85355L16.8204 8.30565L17.9518 6.63344L17.4344 6.11599L15.7706 7.24052L15.2186 6.89356C14.6708 6.54927 14.0672 6.28881 13.4232 6.13363L12.7977 5.98291L12.4144 4H11.681Z" fill="#C1A14E"/>
<path fill-rule="evenodd" clip-rule="evenodd" d="M12 10C10.8954 10 10 10.8954 10 12C10 13.1046 10.8954 14 12 14C13.1046 14 14 13.1046 14 12C14 10.8954 13.1046 10 12 10ZM8 12C8 9.79086 9.79086 8 12 8C14.2091 8 16 9.79086 16 12C16 14.2091 14.2091 16 12 16C9.79086 16 8 14.2091 8 12Z" fill="#C1A14E"/>
</svg>
