<svg width="25" height="24" viewBox="0 0 25 24" fill="none" xmlns="http://www.w3.org/2000/svg">
<path fill-rule="evenodd" clip-rule="evenodd" d="M4.93166 10.1324C4.5993 10.4816 4.5 10.7731 4.5 11C4.5 11.2269 4.5993 11.5184 4.93166 11.8676C5.26892 12.222 5.80422 12.5866 6.54218 12.9146C7.35558 13.2761 8.36165 13.5693 9.5 13.7594V12L14.5 15L9.5 18V15.784C8.08371 15.5737 6.79749 15.2167 5.7299 14.7422C4.83918 14.3464 4.05645 13.8491 3.48287 13.2464C2.90438 12.6385 2.5 11.8777 2.5 11C2.5 10.1223 2.90438 9.3615 3.48287 8.75363C4.05645 8.15092 4.83918 7.65364 5.7299 7.25776C7.51386 6.46489 9.90829 6 12.5 6C15.0917 6 17.4861 6.46489 19.2701 7.25776C20.1608 7.65364 20.9435 8.15092 21.5171 8.75363C22.0956 9.3615 22.5 10.1223 22.5 11C22.5 11.8777 22.0956 12.6385 21.5171 13.2464C20.9435 13.8491 20.1608 14.3464 19.2701 14.7422C18.4598 15.1024 17.5235 15.3949 16.5 15.6068V13.5584C17.2324 13.3847 17.8917 13.1662 18.4578 12.9146C19.1958 12.5866 19.7311 12.222 20.0683 11.8676C20.4007 11.5184 20.5 11.2269 20.5 11C20.5 10.7731 20.4007 10.4816 20.0683 10.1324C19.7311 9.77801 19.1958 9.41337 18.4578 9.08538C16.9844 8.43054 14.8789 8 12.5 8C10.1211 8 8.01558 8.43054 6.54218 9.08538C5.80422 9.41337 5.26892 9.77801 4.93166 10.1324Z" fill="#424242"/>
</svg>
