<svg width="24" height="24" viewBox="0 0 24 24" fill="none" xmlns="http://www.w3.org/2000/svg">
<path fill-rule="evenodd" clip-rule="evenodd" d="M12 4C8.68629 4 6 6.68629 6 10C6 10.7035 6.3329 11.6581 6.96513 12.781C7.58227 13.8771 8.41824 15.0192 9.27437 16.067C10.1274 17.111 10.9832 18.0404 11.627 18.7098C11.7615 18.8496 11.8865 18.9779 12 19.0932C12.1135 18.9779 12.2385 18.8496 12.373 18.7098C13.0168 18.0404 13.8726 17.111 14.7256 16.067C15.5818 15.0192 16.4177 13.8771 17.0349 12.781C17.6671 11.6581 18 10.7035 18 10C18 6.68629 15.3137 4 12 4ZM12 20.5C11.3121 21.2258 11.312 21.2257 11.3118 21.2256L11.3054 21.2194L11.2887 21.2035L11.2266 21.1437C11.1729 21.0919 11.0951 21.0162 10.9967 20.9191C10.7999 20.7248 10.5204 20.4444 10.1855 20.0962C9.51685 19.401 8.62258 18.4302 7.72563 17.3325C6.83176 16.2385 5.91773 14.9973 5.22237 13.7622C4.5421 12.5539 4 11.2295 4 10C4 5.58172 7.58172 2 12 2C16.4183 2 20 5.58172 20 10C20 11.2295 19.4579 12.5539 18.7776 13.7622C18.0823 14.9973 17.1682 16.2385 16.2744 17.3325C15.3774 18.4302 14.4832 19.401 13.8145 20.0962C13.4796 20.4444 13.2001 20.7248 13.0033 20.9191C12.9049 21.0162 12.8271 21.0919 12.7734 21.1437L12.7113 21.2035L12.6946 21.2194L12.6886 21.2251C12.6885 21.2253 12.6879 21.2258 12 20.5ZM12 20.5L12.6879 21.2258L12 21.8777L11.3118 21.2256L12 20.5Z" fill="#424242"/>
<path fill-rule="evenodd" clip-rule="evenodd" d="M12 12C13.1046 12 14 11.1046 14 10C14 8.89543 13.1046 8 12 8C10.8954 8 10 8.89543 10 10C10 11.1046 10.8954 12 12 12ZM12 14C14.2091 14 16 12.2091 16 10C16 7.79086 14.2091 6 12 6C9.79086 6 8 7.79086 8 10C8 12.2091 9.79086 14 12 14Z" fill="#424242"/>
</svg>
