<svg width="24" height="24" viewBox="0 0 24 24" fill="none" xmlns="http://www.w3.org/2000/svg">
<path fill-rule="evenodd" clip-rule="evenodd" d="M2 13H16V20H14V15H4V20H2V13Z" fill="#424242"/>
<path fill-rule="evenodd" clip-rule="evenodd" d="M18 8C17.4477 8 17 8.44772 17 9C17 9.55228 17.4477 10 18 10C18.5523 10 19 9.55228 19 9C19 8.44772 18.5523 8 18 8ZM15 9C15 7.34315 16.3431 6 18 6C19.6569 6 21 7.34315 21 9C21 10.6569 19.6569 12 18 12C16.3431 12 15 10.6569 15 9Z" fill="#424242"/>
<path fill-rule="evenodd" clip-rule="evenodd" d="M20 16H17V14H22V20H20V16Z" fill="#424242"/>
<path fill-rule="evenodd" clip-rule="evenodd" d="M9 5C7.89543 5 7 5.89543 7 7C7 8.10457 7.89543 9 9 9C10.1046 9 11 8.10457 11 7C11 5.89543 10.1046 5 9 5ZM5 7C5 4.79086 6.79086 3 9 3C11.2091 3 13 4.79086 13 7C13 9.20914 11.2091 11 9 11C6.79086 11 5 9.20914 5 7Z" fill="#424242"/>
</svg>
